<svg width="771" height="202" viewBox="0 0 771 202" fill="none" xmlns="http://www.w3.org/2000/svg">
<g clip-path="url(#clip0_155_2)">
<path d="M111.011 0.556094C161.563 5.84545 200.983 48.7724 201 100.963C201.021 156.745 156.038 201.978 100.536 202C45.0308 202.017 0.0171655 156.814 7.66606e-06 101.037C-0.0214397 45.2548 44.9622 0.021554 100.464 0C104.02 0 107.541 0.198297 111.007 0.556094H111.011ZM116.197 194.948C167.834 186.235 202.651 137.105 193.97 85.2289C186.755 42.0519 151.723 10.583 110.419 6.23773C102.081 5.35833 93.4674 5.59543 84.7813 7.05679C74.4823 8.78973 64.8824 12.1565 56.1362 16.8165C101.643 32.331 126.115 55.9111 127.809 80.0689C128.645 94.9886 121.748 105.774 112.676 114.573L177.026 110.055C178.849 109.93 179.42 112.059 177.215 112.697L23.725 156.918C39.3473 178.545 63.6171 192.93 90.5549 195.762C98.8936 196.642 107.507 196.418 116.193 194.943L116.197 194.948ZM73.9675 103.214C82.3835 71.43 72.7794 38.1204 49.8093 20.4677C18.5305 40.3664 0.489006 77.7971 7.00899 116.788C9.15801 129.678 13.8078 141.519 20.3535 151.904C44.812 145.059 66.3194 132.1 73.9675 103.218V103.214Z" fill="white"/>
<path d="M193.97 85.2247C202.651 137.105 167.834 186.235 116.197 194.943C107.511 196.418 98.8979 196.642 90.5592 195.762C63.617 192.934 39.3473 178.545 23.7293 156.918L177.215 112.689C179.42 112.051 178.849 109.921 177.026 110.046L112.676 114.564C121.744 105.77 128.641 94.98 127.809 80.0603C126.115 55.9026 101.643 32.3225 56.1362 16.8079C64.8824 12.1479 74.4865 8.78115 84.7813 7.04821C93.4674 5.58685 102.081 5.34975 110.419 6.22916C151.723 10.5744 186.755 42.0433 193.97 85.2203V85.2247ZM7.00899 116.788C9.15801 129.678 13.8078 141.519 20.3535 151.904C44.812 145.059 66.3194 132.1 73.9675 103.218C82.3835 71.4344 72.7793 38.1248 49.8093 20.4721C18.5305 40.3664 0.489 77.7971 7.00899 116.788Z" fill="#CE181E"/>
</g>
<g clip-path="url(#clip1_155_2)">
<path d="M609.369 70.2414C612.173 70.2414 617.224 65.5802 620.407 59.7981C623.775 54.0187 624.147 49.3547 621.342 49.3547C618.538 49.3547 613.487 54.0159 610.304 59.7981C606.936 65.5802 606.564 70.2414 609.369 70.2414Z" fill="url(#paint0_linear_155_2)"/>
<path d="M770.8 101.599C770.464 101.269 769.5 101.411 768.639 101.801C767.369 102.376 766.211 103.208 765.226 104.228L762.643 107.078L751.468 105.335C751.11 105.281 750.749 105.401 750.497 105.657L748.716 107.471L757.568 111.704C757.133 112.078 756.681 112.538 756.216 113.128C755.214 114.219 753.983 115.476 752.615 116.826L749.416 116.223L748.07 117.595L750.867 118.525C744.091 125.022 734.676 133.136 728.528 137.554C722.541 141.845 710.195 149.675 699.343 149.675C695.788 149.675 692.42 148.928 689.615 146.877C686.061 144.455 684.564 140.724 684.564 136.248C684.564 133.076 685.314 129.721 686.622 126.178C697.099 123.942 708.137 118.907 717.117 112.566C728.716 104.362 747.238 85.7142 740.315 80.6793C738.633 79.3729 736.2 78.8165 733.393 78.8165C721.608 78.8165 701.964 88.8862 687.183 103.991C684.43 106.827 681.951 109.754 679.77 112.705C679.688 112.787 679.603 112.855 679.518 112.942C675.403 117.232 666.983 125.81 657.442 133.267C649.961 139.046 633.308 152.288 625.077 147.065C622.273 145.388 621.151 142.401 621.151 138.487C621.151 132.52 623.956 124.316 627.885 115.364C637.987 109.023 655.573 94.4774 677.835 69.6768C697.107 48.0456 720.863 18.3956 720.863 6.46038C720.863 3.66203 719.555 1.79919 716.748 1.24007C701.594 -2.1174 672.595 29.7718 646.965 65.5748C640.537 74.4335 622.33 99.9241 612.991 121.667C608.342 125.887 603.28 130.21 600.199 132.705C594.401 137.366 584.299 145.011 577.376 147.251C573.072 148.742 569.892 148.369 570.828 142.401C571.764 135.13 576.44 126.737 585.235 113.125C593.84 99.6977 603.568 86.2706 606.186 82.3567C607.683 80.3056 601.51 81.0502 600.199 81.983C597.581 84.0341 582.238 100.445 574.383 110.515C568.957 117.415 558.668 130.654 556.797 139.046C556.162 141.932 556.154 145.336 557.401 148.235C554.419 150.581 549.775 153.033 545.025 153.033C542.967 153.033 540.721 152.659 538.852 151.355C536.42 149.863 534.923 147.065 534.923 142.218C534.923 134.573 538.666 122.079 548.019 103.246C551.573 95.6011 556.063 87.397 560.74 79.1901C563.544 80.682 566.913 82.7331 569.156 84.5986C570.281 85.5314 571.775 85.1578 572.336 84.2277C573.086 83.1095 573.086 81.6148 571.028 79.9374C569.717 78.8192 567.66 77.1418 563.169 74.9026C578.323 48.4219 595.348 22.1295 601.149 13.9254C603.767 10.0088 602.271 5.90671 598.53 4.78846C593.851 3.48202 587.492 4.78846 577.576 11.5007C569.531 16.9092 547.269 37.7931 522.949 61.1045C512.1 58.868 499.19 57.3761 484.411 57.3761C475.806 57.3761 466.639 57.7498 456.723 59.0535C409.391 64.8357 356.447 91.5018 357.197 125.066C357.758 150.984 380.206 159.191 399.289 159.191C403.965 159.191 408.266 158.818 412.198 157.885C452.233 149.495 477.863 119.472 509.853 84.0395C515.09 78.2601 520.519 72.4779 526.128 66.5103C536.606 69.1204 545.211 72.2924 551.573 74.9026C542.967 88.1416 533.426 103.246 529.311 113.13C524.632 124.133 522.763 132.151 522.763 138.119C522.763 148.374 528.189 152.85 534.548 156.022C536.794 157.143 539.224 157.514 541.657 157.514C548.317 157.514 554.971 154.129 559.035 150.859C560.625 152.689 563.022 154.061 566.521 154.53C576.624 155.836 593.835 142.783 600.757 137.563C603.223 135.673 606.419 133.073 609.73 130.267C608.208 134.999 607.3 139.385 607.3 143.157C607.3 149.124 609.544 153.6 614.781 155.466C616.464 156.025 618.149 156.398 620.018 156.398C631.992 156.398 647.895 145.581 656.687 139.055C661.864 135.184 667.131 130.905 671.747 126.89C670.103 131.112 669.216 135.173 669.216 138.869C669.216 145.21 671.649 150.431 677.072 153.788C680.44 156.025 684.556 156.772 688.86 156.772C703.825 156.772 722.535 146.517 731.327 140.361C738.956 134.857 748.048 127.239 754.15 121.574L755.236 124.599L756.585 123.227L755.888 119.935C757.644 118.25 759.062 116.799 759.951 115.743C760.268 115.356 760.517 114.971 760.731 114.592L765.38 123.737L767.161 121.924C767.413 121.667 767.525 121.302 767.462 120.947L765.473 109.846L768.277 107.212C769.279 106.211 770.089 105.038 770.639 103.762C771.014 102.894 771.134 101.931 770.795 101.604L770.8 101.599ZM700.839 103.246C715.057 88.8862 733.39 80.1229 736.758 83.854C739.941 87.0233 725.534 101.195 714.31 109.028C704.769 115.555 696.724 119.283 688.679 121.337C691.859 114.437 696.535 107.725 700.839 103.249V103.246ZM652.58 70.4269C667.358 46.93 699.723 6.46583 711.136 8.89052C721.238 11.127 696.729 42.2689 675.217 66.1394C655.387 88.1443 638.923 101.942 631.628 107.536C638.362 94.4828 646.221 80.3111 652.582 70.4269H652.58ZM491.526 91.1254C467.953 113.501 445.504 132.711 414.448 141.659C408.086 143.525 399.666 145.202 391.436 145.202C377.965 145.202 365.058 140.727 362.437 125.807C357.572 97.2757 407.147 72.1015 446.249 65.0157C460.091 62.591 472.815 61.4727 484.225 61.4727C497.321 61.4727 508.92 62.7792 519.022 64.8302C509.856 73.5962 500.501 82.7331 491.523 91.1227L491.526 91.1254ZM529.874 62.5937C552.137 39.285 575.149 17.0919 583.568 12.2453C589.18 9.07598 594.606 7.21042 597.225 8.51686C598.35 9.07598 598.722 11.127 597.039 12.8071C595.356 14.8581 573.094 42.8307 554.383 70.8005C548.771 68.3759 540.54 65.2066 529.874 62.5964V62.5937Z" fill="url(#paint1_linear_155_2)"/>
<path d="M386.866 154.996V3.71936H420.309V70.4979L449.398 3.71936H486.373L450.484 75.4672L489.093 154.994H461.024C455.609 154.994 450.703 151.811 448.509 146.877L420.309 83.4613V154.994H386.866V154.996Z" fill="white"/>
<path d="M598.536 4.78575C593.857 3.47931 587.498 4.78575 577.581 11.498C569.537 16.9065 547.274 37.7904 522.954 61.1018C512.105 58.8653 499.195 57.3734 484.417 57.3734C475.811 57.3734 466.645 57.7471 456.729 59.0508C455.388 59.2144 455.303 60.0463 453.954 60.2427C453.029 61.9473 453.223 61.5682 452.112 63.0928C464.647 61.0636 473.754 61.4727 484.228 61.4727C497.324 61.4727 508.923 62.7792 519.025 64.8302C509.859 73.5962 500.503 82.7331 491.526 91.1227C467.953 113.499 445.504 132.708 414.448 141.657C408.086 143.522 399.666 145.202 391.436 145.202C377.965 145.202 365.058 140.727 362.437 125.807C360.187 112.615 369.042 100.532 383.654 90.2335C383.656 88.4634 383.391 87.3397 383.517 85.586C366.971 96.733 356.852 109.656 357.197 125.063C357.758 150.982 380.206 159.189 399.289 159.189C403.965 159.189 408.266 158.815 412.198 157.882C452.236 149.492 477.863 119.469 509.856 84.0368C515.093 78.2574 520.519 72.4752 526.131 66.5076C536.608 69.1177 545.214 72.2897 551.576 74.8999C542.97 88.1389 533.429 103.243 529.314 113.128C524.634 124.13 522.766 132.149 522.766 138.116C522.766 148.372 528.192 152.847 534.553 156.019C536.8 157.14 539.23 157.511 541.662 157.511C550.643 157.511 559.623 151.358 562.242 147.627C563.178 146.323 563.366 144.458 562.431 144.269C562.056 144.084 561.12 144.458 559.998 145.761C557.94 148.372 551.579 153.035 545.031 153.035C542.973 153.035 540.726 152.662 538.858 151.358C536.425 149.866 534.928 147.068 534.928 142.221C534.928 134.576 538.672 122.082 548.024 103.249C551.579 95.6039 556.069 87.3997 560.745 79.1929C563.55 80.6848 566.918 82.7358 569.162 84.6014C570.286 85.5342 571.78 85.1605 572.341 84.2304C573.091 83.1122 573.091 81.6203 571.033 79.9402C569.723 78.8219 567.665 77.1446 563.175 74.9053C578.328 48.4247 595.353 22.1322 601.154 13.9281C603.773 10.0115 602.276 5.90945 598.536 4.7912V4.78575ZM597.039 12.8044C595.356 14.8554 573.094 42.828 554.383 70.7978C548.771 68.3731 540.54 65.2039 529.874 62.5937C552.137 39.2851 575.149 17.0919 583.568 12.2453C589.18 9.076 594.606 7.21044 597.225 8.51688C598.35 9.076 598.722 11.127 597.039 12.8071V12.8044Z" fill="url(#paint2_linear_155_2)"/>
<path d="M343.89 30.0855V154.996H310.448V30.0855H281.082V3.71936H372.98V14.8337C372.98 23.256 366.131 30.0827 357.681 30.0827H343.89V30.0855Z" fill="white"/>
<path d="M441.416 123.096C441.717 123.077 441.972 123.061 442.199 123.047C442.303 123.017 442.421 122.987 442.571 122.949C444.103 122.575 445.603 122.139 447.116 121.7C451.215 114.969 457.894 109.926 465.389 106.137L450.498 75.4645L486.387 3.71936H449.412L420.32 70.4978V3.71936H386.877V120.754C391.364 120.964 395.595 122.109 399.685 123.776C407.013 122.106 415.181 124.378 420.186 130.651L420.317 130.608V83.4641L438.13 123.522C439.186 123.317 440.278 123.173 441.414 123.096H441.416Z" fill="white"/>
<path d="M289.66 96.4983L264.191 76.5853H246.293L269.045 155.962C271.398 164.169 276.165 171.552 282.94 176.772C283.003 176.821 283.063 176.868 283.126 176.914C294.927 185.909 307.755 186.414 312.379 186.37H766.236" stroke="white" stroke-width="2" stroke-linecap="round" stroke-linejoin="round"/>
<path d="M297.623 89.8107L266.21 65.2501H231.342L259.405 163.151C262.306 173.273 268.186 182.38 276.542 188.819C276.619 188.879 276.696 188.937 276.772 188.994C291.327 200.089 307.15 200.711 312.853 200.656H766.236" stroke="url(#paint3_linear_155_2)" stroke-width="2.5" stroke-linecap="round" stroke-linejoin="round"/>
</g>
<defs>
<linearGradient id="paint0_linear_155_2" x1="607.494" y1="59.7981" x2="623.214" y2="59.7981" gradientUnits="userSpaceOnUse">
<stop stop-color="#94070A"/>
<stop offset="1" stop-color="#ED1C24"/>
</linearGradient>
<linearGradient id="paint1_linear_155_2" x1="357.191" y1="80.0956" x2="771" y2="80.0956" gradientUnits="userSpaceOnUse">
<stop stop-color="#94070A"/>
<stop offset="1" stop-color="#ED1C24"/>
</linearGradient>
<linearGradient id="paint2_linear_155_2" x1="357.191" y1="81.7621" x2="602.47" y2="81.7621" gradientUnits="userSpaceOnUse">
<stop stop-color="#94070A"/>
<stop offset="1" stop-color="#ED1C24"/>
</linearGradient>
<linearGradient id="paint3_linear_155_2" x1="231" y1="132.956" x2="766.576" y2="132.956" gradientUnits="userSpaceOnUse">
<stop stop-color="#94070A"/>
<stop offset="1" stop-color="#ED1C24"/>
</linearGradient>
<clipPath id="clip0_155_2">
<rect width="201" height="202" fill="white"/>
</clipPath>
<clipPath id="clip1_155_2">
<rect width="540" height="200" fill="white" transform="translate(231 1)"/>
</clipPath>
</defs>
</svg>
