<svg width="204" height="54" viewBox="0 0 204 54" fill="none" xmlns="http://www.w3.org/2000/svg">
<g clip-path="url(#clip0_508_268)">
<mask id="mask0_508_268" style="mask-type:luminance" maskUnits="userSpaceOnUse" x="0" y="1" width="52" height="52">
<path d="M51.8272 1.05859H0V52.8858H51.8272V1.05859Z" fill="white"/>
</mask>
<g mask="url(#mask0_508_268)">
<path d="M19.0737 27.5388C21.2434 19.3835 18.7672 10.8367 12.845 6.30734C4.77818 11.4136 0.125887 21.0174 1.80677 31.0216C2.36063 34.3286 3.56008 37.3672 5.24828 40.0311C11.5555 38.2747 17.1015 34.9494 19.0737 27.5388ZM29.9619 51.0755C43.2769 48.8407 52.2545 36.2348 50.0165 22.9235C48.1559 11.8456 39.1229 3.77109 28.4721 2.656C26.3214 2.42984 24.1008 2.49165 21.8612 2.86646C19.206 3.31145 16.7298 4.17458 14.4741 5.37093C26.2089 9.35104 32.5187 15.4013 32.9553 21.6C33.1711 25.4281 31.3922 28.1962 29.0537 30.4524L45.6473 29.2934C46.1168 29.2616 46.264 29.8075 45.6953 29.9709L6.11793 41.319C10.1458 46.8675 16.4038 50.5593 23.3512 51.2856C25.5017 51.5117 27.7225 51.4535 29.9619 51.0755ZM28.625 1.19897C41.6598 2.55549 51.8252 13.5701 51.8294 26.9617C51.8347 41.2739 40.2358 52.8805 25.9235 52.8858C11.6116 52.8907 0.00485277 41.2922 0.000245912 26.9801C-0.00498913 12.6675 11.5938 1.06141 25.9057 1.05616C26.8229 1.05557 27.7304 1.10644 28.625 1.19897Z" fill="white"/>
<path d="M1.80683 31.0218C2.3607 34.3287 3.56016 37.3673 5.24836 40.0313C11.5556 38.2748 17.1016 34.9496 19.0737 27.539C21.2436 19.3836 18.7674 10.8369 12.845 6.30748C4.77825 11.4138 0.125963 21.0176 1.80683 31.0218ZM50.0165 22.9236C52.2546 36.2349 43.2769 48.8409 29.962 51.0756C27.7225 51.4536 25.5017 51.5119 23.3512 51.2857C16.4038 50.5594 10.1459 46.8676 6.11801 41.3192L45.6955 29.9711C46.264 29.8076 46.117 29.2617 45.6473 29.2935L29.0539 30.4525C31.3922 28.1963 33.1711 25.4282 32.9555 21.6001C32.5188 15.4014 26.2091 9.35119 14.4742 5.37108C16.7299 4.17474 19.2061 3.31161 21.8614 2.86662C24.1008 2.4918 26.3216 2.42999 28.4721 2.65615C39.1229 3.77123 48.1559 11.8458 50.0165 22.9236Z" fill="#CF181F"/>
</g>
</g>
<path d="M148.723 20.4243C148.723 20.4243 148.723 20.4317 148.73 20.4317C148.768 20.4541 148.805 20.469 148.857 20.469C149.193 20.469 149.79 19.9096 150.17 19.2233C150.357 18.9025 150.468 18.6116 150.498 18.3878C150.655 17.6195 150.431 17.4404 150.431 17.4404L150.058 17.709V18.0297C149.73 18.1864 149.275 18.6638 148.969 19.2233C148.939 19.2755 148.909 19.3352 148.88 19.3874L148.633 19.5366C148.633 19.5366 148.492 20.2005 148.701 20.4168C148.701 20.4168 148.701 20.4168 148.708 20.4243H148.723Z" fill="#CF181F"/>
<path d="M99.8329 30.0101C100.474 30.4278 101.28 30.6665 102.242 30.6665C104.577 30.6665 107.382 29.3312 110.023 27.1829V26.5936L108.658 26.8397L108.755 27.2649C106.912 28.5853 105.084 29.376 103.563 29.376C102.041 29.376 101.377 28.824 100.87 27.8617C100.855 27.8319 100.84 27.802 100.825 27.7796C100.795 27.7125 100.765 27.6454 100.736 27.5708C100.713 27.526 100.698 27.4738 100.676 27.429C100.653 27.3694 100.631 27.3022 100.609 27.2426C100.586 27.1754 100.571 27.1157 100.557 27.0486C100.542 26.9889 100.527 26.9367 100.512 26.877C100.497 26.795 100.474 26.7055 100.46 26.6234C100.452 26.5787 100.445 26.5339 100.437 26.4817C100.422 26.3623 100.407 26.2504 100.4 26.1236C100.4 26.1012 100.4 26.0789 100.4 26.0565C100.392 25.9073 100.385 25.7506 100.385 25.5865C100.385 25.4224 100.4 25.1613 100.415 24.9375C100.415 24.8928 100.422 24.848 100.43 24.7958C100.519 23.841 100.773 22.7668 101.191 21.618C101.191 21.618 101.273 20.6334 103.063 17.754C103.13 17.6495 103.182 17.5525 103.242 17.463C103.272 17.4108 103.302 17.3586 103.339 17.3064C103.428 17.1572 103.525 17.0155 103.622 16.8663C103.704 16.7395 103.787 16.6126 103.876 16.4858C103.951 16.3739 104.033 16.2546 104.115 16.1427C104.189 16.0308 104.271 15.9264 104.346 15.8219C104.406 15.7399 104.465 15.6653 104.518 15.5832C104.607 15.4639 104.697 15.3445 104.779 15.2326C104.808 15.1879 104.846 15.1506 104.876 15.1133C107.979 11.1298 111.97 8.30265 114.864 8.30265C117.758 8.30265 118.042 9.77219 118.042 12.0996C118.042 14.427 117.855 14.151 117.482 15.3445C116.938 16.8364 114.737 20.9467 114.737 20.9467C113.857 22.4535 112.559 24.9152 112.619 26.2131C112.678 27.526 114.163 27.3619 116.058 26.1385C115.118 27.4067 114.566 28.2794 114.327 29.2641C114.17 29.9131 114.327 30.5695 115.215 30.6889C116.14 30.8082 117.714 29.5923 118.348 29.1298C118.474 29.0329 118.616 28.921 118.773 28.7942C118.452 29.2343 118.206 29.5849 118.027 29.8609L117.699 29.8833V30.4726C117.684 30.6292 118.146 30.7635 118.333 30.7113C118.467 30.6964 120.899 27.2351 120.899 27.2351C121.548 26.3623 122.577 25.5418 123.435 24.9599C124.189 24.4601 124.994 24.0499 125.337 24.393C125.718 24.7884 124.479 26.1236 123.025 27.3395C122.271 27.9736 121.533 28.7419 121.57 29.6147C121.607 30.3308 122.286 30.674 122.891 30.674C123.711 30.6367 124.793 29.8683 126.009 28.9433C126.986 28.2048 127.821 27.3694 128.097 27.0411C128.179 26.9442 128.209 26.8621 128.202 26.7875C128.239 26.6831 128.202 26.1833 128.202 26.1833H128.112L128.068 26.2206L128 26.2355L127.635 26.6831C127.635 26.6831 124.949 29.2939 123.361 29.6893L122.995 29.7863C122.995 29.7714 122.995 29.7564 122.995 29.7415C123.099 29.0403 124.077 27.7722 125.24 26.4518C125.718 25.9073 126.061 25.2359 126.061 24.7212C126.061 24.2065 125.897 24.0573 125.501 23.938C125.449 23.7142 125.315 23.4382 125.017 23.4531C124.509 23.468 123.084 24.3109 123.084 24.3109L122.965 24.4005C123.189 24.0797 123.413 23.7589 123.637 23.4382C124.479 23.0577 125.472 22.4237 126.687 21.1928C127.665 20.2007 128.903 18.3806 129.022 17.3511C129.149 16.5604 128.955 16.2695 128.955 16.2695L128.62 16.3217V16.6201C128.075 16.4858 127.254 17.0901 126.635 17.8658C124.39 20.7453 122.316 23.9976 120.108 26.9815C120.034 27.0784 119.966 27.168 119.899 27.2649C119.608 27.5484 119.25 27.8692 118.922 28.1601L119.034 27.7274L117.221 29.2939L115.916 29.7863L115.61 29.8161C115.603 29.749 115.61 29.6744 115.617 29.5774C115.774 28.6151 116.61 27.2276 118.019 25.1091C118.363 24.5944 118.668 24.117 118.959 23.6843H120.265C120.541 23.6843 120.75 23.5202 120.765 23.3859V22.8265L119.78 22.8489L119.526 22.8638C120.466 21.4688 121.078 20.6408 121.488 20.1037C121.496 20.0888 121.503 20.0739 121.503 20.0664V19.4697L121.108 19.507L120.712 20.1485H120.839C120.421 20.5513 119.385 21.812 118.266 23.2368H118.064L117.997 22.9085L117.117 22.8116L116.498 22.9757V23.565C116.498 23.6321 116.565 23.6843 116.721 23.6843H117.922C117.617 24.0797 117.326 24.49 117.035 24.8629C116.938 24.9898 116.841 25.1166 116.751 25.2359C116.647 25.3031 116.542 25.3627 116.438 25.4224L116.468 25.2956L116.013 25.4597L114.618 25.9595L114.633 26.2355C114.446 26.2803 114.267 26.3026 114.118 26.2952C113.074 26.2355 114.163 23.6993 115.021 22.0358C115.244 21.6031 115.453 21.2301 115.603 20.969C115.931 20.3574 116.356 19.5219 116.789 18.5969C116.833 18.485 116.886 18.3731 116.953 18.2388C117.273 17.5376 117.594 16.7917 117.878 16.0532C118.355 14.6657 118.519 13.5766 118.579 13.0171C118.706 11.57 118.609 9.74235 117.549 8.57865C117.527 8.55627 117.505 8.52644 117.475 8.50406C117.43 8.4593 117.385 8.41454 117.341 8.36978C116.647 7.74318 115.692 7.39258 114.499 7.39258C111.694 7.39258 108.21 9.31715 105.144 12.2562C103.496 13.8302 101.974 15.7175 100.743 17.754C100.743 17.754 99.3406 20.1932 98.8707 21.618C98.4902 22.6773 98.2366 23.6843 98.1098 24.6168C98.1098 24.6242 98.1098 24.6317 98.1098 24.6466C98.0576 25.0793 98.0203 25.5045 98.0203 25.9073C98.0203 26.3101 98.0277 26.2281 98.0426 26.3922C98.0426 26.4071 98.0426 26.422 98.0426 26.4369C98.0501 26.5787 98.065 26.7204 98.0874 26.8547C98.0874 26.8994 98.1023 26.9442 98.1098 26.9964C98.1322 27.1307 98.1545 27.2575 98.1769 27.3918C98.1769 27.4216 98.1918 27.4589 98.1993 27.4887C98.2963 27.8915 98.4305 28.2645 98.6021 28.6002C98.6245 28.6375 98.6469 28.6823 98.6618 28.7196C98.714 28.8165 98.7737 28.9135 98.8334 29.003C98.8557 29.0403 98.8856 29.0702 98.908 29.1075C99.1243 29.4133 99.3779 29.6744 99.6688 29.8907C99.6838 29.9056 99.6987 29.9131 99.7136 29.928C99.7583 29.9579 99.7956 29.9951 99.8404 30.025C99.8404 30.025 99.8404 30.025 99.8479 30.0175L99.8329 30.0101ZM128.396 17.3138C128.709 17.5003 128.157 18.6789 127.366 19.7606C127.344 19.6562 127.262 19.6487 127.046 19.9098C126.68 20.3424 125.479 21.2525 124.696 21.8344C125.009 21.3569 125.322 20.8795 125.628 20.4245C126.225 19.5144 127.874 16.9632 128.403 17.3064L128.396 17.3138Z" fill="#CF181F"/>
<path d="M66.429 30.2262C71.8819 30.2262 77.2976 26.6157 77.8272 20.6928C78.1405 17.0451 75.3656 14.2477 71.785 14.2477C68.2043 14.2477 70.5989 14.3745 70.0692 14.561C71.2553 12.9721 72.7174 11.1669 73.9333 9.578C75.4625 9.70482 76.1414 9.86147 77.7974 9.82417C80.4754 9.7272 85.0556 9.66752 86.9205 7.0492C86.9428 7.01936 86.9578 6.98207 86.9652 6.95223V6.93731C87.1965 6.3853 86.9428 6.08691 86.9428 6.08691L86.1148 6.6986L86.2193 6.84779C84.6155 7.64597 82.4373 7.92197 80.8036 7.92197C79.17 7.92197 76.5666 7.48932 76.0369 6.7359C75.8803 6.51957 75.8504 6.36292 75.6341 6.30324C75.4178 6.20627 75.1045 6.2734 74.9777 6.43006C74.1347 7.42964 70.1215 12.9721 67.63 15.7769L67.7195 16.0231L67.8761 16.1797C68.4356 16.1797 69.4053 15.1503 70.9942 15.1503C73.8289 15.1503 75.6639 17.612 75.4178 20.4466C74.9478 24.9597 71.6805 29.6369 66.511 29.51C63.8927 29.4131 62.4008 27.7048 62.4306 25.3327C62.4605 24.9895 62.5201 24.7732 62.6171 24.6464C62.6768 24.5196 62.7738 24.4301 62.9006 24.4002C63.0871 24.3405 63.557 24.7135 64.0866 24.4301C64.676 24.1466 65.0191 23.5573 64.8326 22.871C64.676 22.3712 64.1165 22.1847 63.6838 22.1847C62.1546 22.1847 61.349 23.7736 61.252 24.9895C60.9685 28.1375 63.4302 30.2187 66.4215 30.2187L66.429 30.2262Z" fill="#CF181F"/>
<path d="M96.2223 21.9612C96.2969 21.8568 96.379 21.7449 96.4685 21.6106C97.6844 19.8501 98.6915 17.7465 98.6915 17.7465C99.6538 15.6355 100.124 13.6736 100.124 12.0548C100.124 9.18291 98.6616 7.31055 95.9016 7.31055C91.299 7.31055 84.8539 12.495 81.4822 18.8878C80.132 21.4689 79.4905 23.8112 79.4905 25.7432C79.4905 28.6151 80.9526 30.4875 83.7126 30.4875C86.4727 30.4875 92.6716 26.8771 96.2149 21.9612H96.2223ZM81.8775 25.415C81.8775 23.5948 82.5489 21.2525 83.9289 18.7013C87.0321 12.8978 92.5746 8.21316 96.2969 8.21316C100.019 8.21316 99.4598 9.67524 99.4598 11.9952C99.4598 14.3151 98.9451 15.5683 97.9008 17.7465C96.834 20.2679 95.5883 21.6106 95.5883 21.6106C92.4329 25.9968 88.1138 29.197 85.0404 29.197C81.9671 29.197 81.8775 27.7349 81.8775 25.415Z" fill="#CF181F"/>
<path d="M71.7476 39.0878C71.7476 39.0878 71.7476 39.0878 71.7476 39.0803C71.7924 38.8715 71.7476 38.394 71.7476 38.394L71.3299 38.4985C71.2926 38.491 71.2553 38.4836 71.2105 38.4836C71.0837 38.4836 70.9718 38.5134 70.8748 38.5731L70.472 38.67C70.472 38.67 70.4422 39.0803 70.472 39.3265C70.5168 39.5727 70.7032 39.7591 70.9942 39.7591C71.2851 39.7591 71.6805 39.4757 71.7401 39.1325C71.7401 39.1176 71.7401 39.1102 71.7401 39.0952L71.7476 39.0878Z" fill="#CF181F"/>
<path d="M78.3939 40.6022C77.7002 40.6022 77.0363 40.8558 76.5365 41.4601L77.0437 38.5732V37.9839L76.5589 38.5732H76.1038L74.9028 45.4211L74.7686 45.5927V46.182H75.7159L76.2232 43.2951C76.4395 42.027 77.2526 41.5123 78.1105 41.5123C78.9683 41.5123 79.3562 42.0121 79.207 42.8998L78.7445 45.533L78.6326 45.5927V46.182H79.58L80.1693 42.8475C80.4005 41.4824 79.6695 40.6097 78.4014 40.6097L78.3939 40.6022Z" fill="#CF181F"/>
<path d="M86.5696 40.6025C85.0628 40.6025 83.541 41.6096 83.2277 43.3626C82.9144 45.1231 84.093 46.3166 85.6595 46.3166C87.226 46.3166 88.621 45.317 88.9268 43.5342C89.2327 41.811 88.0764 40.6025 86.5696 40.6025ZM87.9944 43.4372C87.7781 44.7202 86.7263 45.3916 85.7341 45.3916C84.7644 45.3991 83.9662 44.7277 84.1676 43.4596C84.4063 42.1989 85.4507 41.535 86.413 41.5275C87.3902 41.5275 88.2033 42.1989 87.9869 43.4372H87.9944Z" fill="#CF181F"/>
<path d="M97.1923 40.6022C95.6034 40.6022 94.2383 41.7659 93.9697 43.3473C93.6788 44.9959 94.6784 46.3088 96.4015 46.3088C98.1247 46.3088 98.3783 45.8985 98.9453 45.1227V44.5334L98.4156 44.7348L98.2441 44.608C97.8562 45.1078 97.2445 45.4136 96.5134 45.4136C95.7824 45.4136 94.8649 44.8691 94.8649 43.8844H99.4078C99.4525 43.7576 99.5047 43.5338 99.5196 43.4592C99.8255 41.9076 98.8557 40.5947 97.2072 40.5947L97.1923 40.6022ZM98.6096 43.0564H94.9917C95.305 42.0866 96.1181 41.4899 97.1326 41.4899C98.1471 41.4899 98.6543 41.9822 98.6096 43.0564Z" fill="#CF181F"/>
<path d="M113.417 38.4316C111.485 38.4316 110.232 39.931 109.821 42.2733C109.411 44.6231 110.254 46.3164 112.082 46.3164C113.909 46.3164 115.267 44.8096 115.677 42.4598C116.087 40.11 115.252 38.4316 113.417 38.4316ZM114.67 42.3778C114.334 44.265 113.454 45.3318 112.223 45.3318C110.993 45.3318 110.485 44.265 110.821 42.3778C111.149 40.4905 112.037 39.4088 113.268 39.4088C114.499 39.4088 115.006 40.483 114.67 42.3778Z" fill="#CF181F"/>
<path d="M120.033 38.4316C118.101 38.4316 116.848 39.931 116.438 42.2733C116.028 44.6231 116.871 46.3164 118.698 46.3164C120.526 46.3164 121.883 44.8096 122.294 42.4598C122.704 40.11 121.868 38.4316 120.033 38.4316ZM121.294 42.3778C120.958 44.265 120.078 45.3318 118.847 45.3318C117.617 45.3318 117.109 44.265 117.445 42.3778C117.773 40.4905 118.661 39.4088 119.892 39.4088C121.123 39.4088 121.63 40.483 121.294 42.3778Z" fill="#CF181F"/>
<path d="M121.958 47.6969H122.771L123.95 45.0562H122.861L121.958 47.6969Z" fill="#CF181F"/>
<path d="M128.649 38.4316C126.717 38.4316 125.464 39.931 125.054 42.2733C124.644 44.6231 125.487 46.3164 127.314 46.3164C129.142 46.3164 130.499 44.8096 130.91 42.4598C131.32 40.11 130.484 38.4316 128.649 38.4316ZM129.903 42.3778C129.567 44.265 128.687 45.3318 127.456 45.3318C126.225 45.3318 125.718 44.265 126.053 42.3778C126.382 40.4905 127.269 39.4088 128.5 39.4088C129.731 39.4088 130.238 40.483 129.903 42.3778Z" fill="#CF181F"/>
<path d="M135.266 38.4316C133.334 38.4316 132.081 39.931 131.671 42.2733C131.26 44.6231 132.103 46.3164 133.931 46.3164C135.758 46.3164 137.116 44.8096 137.526 42.4598C137.937 40.11 137.101 38.4316 135.266 38.4316ZM136.519 42.3778C136.184 44.265 135.303 45.3318 134.073 45.3318C132.842 45.3318 132.334 44.265 132.67 42.3778C132.998 40.4905 133.886 39.4088 135.117 39.4088C136.348 39.4088 136.855 40.483 136.519 42.3778Z" fill="#CF181F"/>
<path d="M141.883 38.4316C139.95 38.4316 138.697 39.931 138.287 42.2733C137.877 44.6231 138.72 46.3164 140.547 46.3164C142.375 46.3164 143.733 44.8096 144.143 42.4598C144.553 40.11 143.718 38.4316 141.883 38.4316ZM143.143 42.3778C142.808 44.265 141.927 45.3318 140.696 45.3318C139.466 45.3318 138.958 44.265 139.294 42.3778C139.622 40.4905 140.51 39.4088 141.741 39.4088C142.972 39.4088 143.479 40.483 143.143 42.3778Z" fill="#CF181F"/>
<path d="M150.7 40.6025C149.111 40.6025 147.746 41.7662 147.477 43.3477C147.186 44.9962 148.186 46.3091 149.909 46.3091C151.632 46.3091 151.886 45.8989 152.453 45.1231V44.5337L151.886 44.7128L151.752 44.6158C151.699 44.6829 151.64 44.7501 151.573 44.8172L151.319 44.8993L151.416 44.9589C151.043 45.2499 150.573 45.4214 150.028 45.4214C149.051 45.4214 148.38 44.8769 148.38 43.8922H152.923C152.968 43.7654 153.02 43.5416 153.035 43.467C153.341 41.9154 152.371 40.6025 150.722 40.6025H150.7ZM152.125 43.0567H148.507C148.82 42.087 149.633 41.4902 150.648 41.4902C151.662 41.4902 152.169 41.9826 152.125 43.0567Z" fill="#CF181F"/>
<path d="M160.144 40.6025C159.48 40.6025 158.786 40.8935 158.279 41.5499C158.048 40.9382 157.533 40.6025 156.824 40.6025C156.116 40.6025 155.593 40.8412 155.109 41.3933L155.228 40.7443H154.281L153.438 45.5408L153.326 45.5855V46.1749H154.273L154.818 43.109C155.026 41.9602 155.765 41.4977 156.489 41.4977C157.212 41.4977 157.54 41.9676 157.399 42.8255L156.921 45.5557L156.817 45.5855V46.1749H157.764L158.294 43.1239C158.503 41.9602 159.174 41.5052 159.912 41.5052C160.651 41.5052 161.024 41.9751 160.882 42.833L160.412 45.5035L160.293 45.5855V46.1749H161.24L161.837 42.7957C162.068 41.4306 161.285 40.6025 160.151 40.6025H160.144Z" fill="#CF181F"/>
<path d="M166.216 40.6024C165.328 40.6024 164.575 40.953 164.045 41.5497L164.187 40.7441V40.1548L163.65 40.7441H163.247L162.038 47.6442L161.912 47.7636V48.3529H162.859L163.426 45.1453C163.799 45.9061 164.552 46.3164 165.447 46.3164C166.88 46.3164 168.23 45.287 168.521 43.5713C168.789 41.9824 167.775 40.6024 166.231 40.6024H166.216ZM167.566 43.5041C167.35 44.7499 166.328 45.4063 165.358 45.4063C164.388 45.4063 163.493 44.7126 163.717 43.4072C163.911 42.2957 164.881 41.5199 165.962 41.5199C167.044 41.5199 167.745 42.4001 167.559 43.5041H167.566Z" fill="#CF181F"/>
<path d="M174.429 40.6025C172.922 40.6025 171.4 41.6096 171.087 43.3626C170.774 45.1231 171.952 46.3166 173.519 46.3166C175.085 46.3166 176.48 45.317 176.786 43.5342C177.092 41.811 175.936 40.6025 174.429 40.6025ZM175.846 43.4372C175.63 44.7202 174.578 45.3916 173.586 45.3916C172.616 45.3991 171.818 44.7277 172.02 43.4596C172.258 42.1989 173.303 41.535 174.265 41.5275C175.242 41.5275 176.055 42.1989 175.839 43.4372H175.846Z" fill="#CF181F"/>
<path d="M185.328 40.6025C183.739 40.6025 182.374 41.7662 182.105 43.3477C181.814 44.9962 182.814 46.3091 184.537 46.3091C186.26 46.3091 186.514 45.8989 187.081 45.1231V44.5337L186.566 44.7501L186.379 44.6158C185.991 45.1156 185.38 45.4214 184.649 45.4214C183.918 45.4214 183 44.8769 183 43.8922H187.543C187.588 43.7654 187.64 43.5416 187.655 43.467C187.961 41.9154 186.991 40.6025 185.342 40.6025H185.328ZM186.745 43.0567H183.127C183.44 42.087 184.253 41.4902 185.268 41.4902C186.282 41.4902 186.79 41.9826 186.745 43.0567Z" fill="#CF181F"/>
<path d="M191.303 40.6025C189.714 40.6025 188.349 41.7662 188.08 43.3477C187.789 44.9962 188.789 46.3091 190.512 46.3091C192.235 46.3091 192.489 45.8989 193.056 45.1231V44.5337L192.601 44.7948L192.354 44.6158C191.967 45.1156 191.355 45.4214 190.624 45.4214C189.893 45.4214 188.975 44.8769 188.975 43.8922H193.518C193.563 43.7654 193.615 43.5416 193.63 43.467C193.936 41.9154 192.966 40.6025 191.318 40.6025H191.303ZM192.727 43.0567H189.109C189.423 42.087 190.236 41.4902 191.25 41.4902C192.265 41.4902 192.772 41.9826 192.727 43.0567Z" fill="#CF181F"/>
<path d="M201.828 16.1126L200.881 16.5079L201.045 16.769C200.575 17.1569 199.15 18.8875 197.613 20.8494H197.352L197.405 20.7151L196.882 20.551H195.734L195.323 20.7002V21.2746C195.323 21.3641 195.413 21.4312 195.614 21.4312H197.173C196.771 21.946 196.39 22.4756 196.017 22.9679C195.1 24.1838 194.376 25.1312 193.817 25.9741C193.637 26.1457 193.421 26.3546 193.175 26.5858C192.951 26.7126 192.675 26.8917 192.302 27.1751C190.654 28.4358 188.304 29.5324 188.304 29.5324L187.424 29.8382C187.349 29.8233 187.282 29.8084 187.207 29.786C186.402 29.5398 186.342 28.3612 186.342 28.2717L186.79 27.4288C188.326 26.5187 190.795 24.4225 193.384 21.1478C195.167 18.9174 198.083 14.8668 198.083 12.9944C198.083 11.1221 197.904 12.2336 197.524 12.0844C195.428 11.2787 190.064 20.1482 187.252 24.803C187.148 24.982 187.036 25.161 186.931 25.3401C186.924 25.3401 186.909 25.3401 186.901 25.3401C186.812 25.3401 186.722 25.3625 186.655 25.4296C186.252 25.9667 184.649 27.3691 183.94 27.9435C183.119 28.6148 181.56 29.7711 180.8 29.7711C180.039 29.7711 180.419 29.6592 180.419 29.3235C180.419 28.4358 181.023 27.3616 182.157 25.6012C183.202 23.975 184.671 22.0355 184.671 21.8564V21.2671L183.955 21.7893L183.977 21.8564C183.828 21.946 183.664 22.1325 183.291 22.5054V22.3488C183.291 22.0653 183.172 21.7744 182.836 21.6252L182.896 21.6103L182.426 21.0135L181.314 21.3044L179.8 22.0952L179.986 22.1175C178.591 22.7814 177.018 23.9451 175.787 25.5116C175.749 25.5639 175.712 25.6086 175.675 25.6608C175.018 26.362 174.116 27.1751 173.049 28.0106C171.4 29.2787 169.662 30.0844 169.043 29.9725C168.976 29.9725 168.864 29.9053 168.842 29.8382C168.775 29.6144 168.864 29.1221 169.289 28.6372C170.625 27.011 172.855 25.2506 172.989 23.9601C173.079 22.9381 172.035 22.7143 171.542 22.4458C171.184 22.2443 171.05 22.0206 171.05 22.0206C171.05 22.0206 171.386 21.6849 171.453 21.3044C171.497 20.924 171.408 20.5659 170.916 20.5659C170.423 20.5659 170.289 20.7897 170.155 21.3044C170.043 21.6849 170.177 21.8863 170.244 22.0206C170.177 22.3562 169.357 23.3558 168.618 24.1838C167.753 25.1834 166.992 26.101 166.455 26.5485C166.38 26.6157 166.328 26.6828 166.298 26.7425C165.821 27.1826 165.194 27.7271 164.351 28.3761C162.882 29.51 161.569 30.0247 160.696 30.0247C159.823 30.0247 159.249 29.3533 159.249 28.2419C159.249 27.1304 159.584 26.3024 160.36 25.1237C161.696 23.0724 163.165 22.2294 163.971 22.2294C164.776 22.2294 164.53 22.3861 164.53 22.6322C164.53 23.0351 164.314 23.3707 164.083 23.6244L163.553 23.5349V24.1242C163.553 24.2361 164.001 24.6613 164.418 24.6836C164.53 24.6836 164.62 24.6389 164.664 24.5717C164.754 24.4375 165.358 23.5498 165.358 22.7889C165.358 22.028 165.127 21.8266 164.441 21.7147L164.224 21.4984L162.889 21.4611L162.046 22.2742L162.419 22.2145C161.002 22.9157 159.346 24.2659 158.369 25.8175C157.727 26.4814 156.869 27.2423 155.884 28.0181C154.236 29.2862 152.498 30.0918 151.879 29.9799C151.812 29.9799 151.7 29.9128 151.677 29.8457C151.61 29.6219 151.7 29.1295 152.125 28.6447C153.46 27.0185 155.691 25.258 155.825 23.9675C155.914 22.9455 154.87 22.7218 154.378 22.4532C154.02 22.2518 153.885 22.028 153.885 22.028C153.885 22.028 154.221 21.6923 154.288 21.3119C154.333 20.9315 154.243 20.5734 153.751 20.5734C153.259 20.5734 153.124 20.7972 152.99 21.3119C152.878 21.6923 153.013 21.8937 153.08 22.028C153.013 22.3637 152.192 23.3633 151.453 24.1913C150.588 25.1909 149.827 26.1084 149.29 26.556C149.186 26.6455 149.134 26.735 149.119 26.8096C148.619 27.2572 148.112 27.6898 147.783 27.9584C147.09 28.5179 145.889 29.4279 145.068 29.6965C144.553 29.8755 144.18 29.8307 144.285 29.1146C144.397 28.2493 144.956 27.2423 146.001 25.6161C147.022 24.0123 148.186 22.4085 148.492 21.9385C148.514 21.9087 148.522 21.8788 148.514 21.8564V21.2746L147.851 21.8564C147.821 21.8714 147.791 21.8788 147.776 21.8937C147.463 22.1399 145.635 24.1018 144.703 25.3028C144.688 25.3177 144.68 25.3326 144.665 25.355C144.598 25.3625 144.538 25.3923 144.486 25.437C144.083 25.9741 142.48 27.3765 141.771 27.9509C141.562 28.1225 141.294 28.3314 141.01 28.5402L140.868 28.3538L138.616 29.5324L138.69 29.7711C138.668 29.7711 138.645 29.7711 138.623 29.7711C138.399 29.7711 138.243 29.6592 138.243 29.3235C138.243 28.4358 138.847 27.3616 139.981 25.6012C141.025 23.975 142.495 22.0355 142.495 21.8564V21.2671L141.98 21.4014L141.846 21.8341C141.681 21.9161 141.525 22.0952 141.114 22.5054V22.3488C141.114 22.0131 140.95 21.6849 140.473 21.5581L140.495 21.2224C139.787 20.7077 138.451 21.5431 138.451 21.5431L138.563 21.8042C137.012 22.3562 135.065 23.6542 133.603 25.5116C132.581 26.8022 132.156 27.9584 132.156 28.8535C132.156 29.7487 132.715 30.5469 133.536 30.5469C134.356 30.5469 135.699 29.6368 136.631 28.5626C136.564 28.7864 136.519 29.0102 136.519 29.2116C136.519 29.9053 136.967 30.5692 137.922 30.5692C139.123 30.5469 141.04 29.0997 141.823 28.5179C142.189 28.2493 142.681 27.839 143.173 27.4138C142.897 27.8763 142.674 28.3239 142.591 28.6969C142.435 29.413 142.591 30.3902 143.748 30.5469C144.949 30.7035 147 29.1445 147.821 28.5179C148.686 27.8465 150.312 26.4441 150.827 25.8249C150.909 25.7354 150.946 25.6534 150.961 25.5862C151.26 25.258 151.543 24.9373 151.729 24.7135C152.311 24.0421 153.49 22.5726 153.49 22.5726C153.49 22.5726 153.691 22.7964 153.982 22.9306C154.519 23.2215 155.094 23.3558 155.206 23.8631C155.273 24.3107 154.736 24.8179 154.139 25.2431C153.251 25.9145 152.558 26.1532 151.357 27.1155C150.491 27.8092 149.618 28.7864 149.842 29.786C149.976 30.3678 150.625 30.6513 151.647 30.614C152.983 30.5692 154.564 29.7263 156.257 28.3612C156.787 27.9286 157.272 27.5257 157.697 27.1528C157.563 27.5705 157.488 27.9882 157.488 28.406C157.488 29.8084 158.51 30.6811 160.248 30.6811C161.986 30.6811 163.232 29.7487 164.411 28.8983C165.858 27.8689 167.395 26.4739 167.894 25.8324C168.275 25.4221 168.655 24.9895 168.894 24.7135C169.476 24.0421 170.654 22.5726 170.654 22.5726C170.654 22.5726 170.856 22.7964 171.147 22.9306C171.684 23.2215 172.258 23.3558 172.37 23.8631C172.437 24.3107 171.9 24.8179 171.303 25.2431C170.416 25.9145 169.722 26.1532 168.521 27.1155C167.656 27.8092 166.783 28.7864 167.007 29.786C167.141 30.3678 167.79 30.6513 168.812 30.614C170.147 30.5692 171.729 29.7263 173.422 28.3612C173.862 28.0032 174.28 27.6525 174.645 27.3318C174.414 27.8913 174.31 28.406 174.31 28.8461C174.31 29.8233 174.869 30.5394 175.69 30.5394C176.51 30.5394 177.853 29.6293 178.785 28.5552C178.718 28.7789 178.674 29.0027 178.674 29.2041C178.674 29.8979 179.121 30.5618 180.076 30.5618C181.277 30.5394 183.194 29.0923 183.977 28.5104C184.522 28.1076 185.357 27.3989 186.036 26.7723C183.351 31.2406 180.054 36.716 179.748 37.1934C179.591 37.4246 179.449 37.6111 179.308 37.7678L179.144 37.7081L178.614 37.902V38.4913C178.614 38.5809 178.703 38.648 178.905 38.648C179.397 38.6256 181.18 37.9542 181.18 37.9542C182.56 35.3061 184.074 32.5833 185.521 29.7785C185.768 30.0695 186.387 30.5394 187.439 30.5842C188.908 30.6513 190.646 29.2265 191.407 28.7118C191.78 28.4507 192.362 27.9808 192.936 27.4884C192.75 27.8913 192.608 28.2792 192.511 28.6894C192.31 29.5324 192.511 30.3828 193.667 30.5394C194.868 30.6961 196.92 29.1146 197.74 28.5104C198.606 27.839 200.232 26.4366 200.746 25.8175C200.858 25.7056 200.903 25.6012 200.896 25.5191V24.9522L200.418 25.3252V25.3848C200.418 25.3923 200.396 25.4072 200.388 25.4221C199.986 25.9368 198.382 27.3616 197.673 27.936C196.979 28.4955 195.756 29.3608 194.958 29.6741C194.555 29.8531 194.048 29.8084 194.175 29.0923C194.376 27.8465 195.465 26.0413 197.293 23.2812C197.74 22.6099 198.136 21.9907 198.516 21.4312H200.209C200.582 21.4312 200.858 21.2 200.858 21.021V20.454L200.433 20.4913L199.202 20.4242C200.441 18.5668 201.254 17.4777 201.791 16.769C201.806 16.7392 201.813 16.7168 201.813 16.7019V16.1051L201.828 16.1126ZM187.931 25.1983C189.356 22.5726 190.601 20.4093 191.922 18.4922C193.279 16.5303 196.039 12.6364 197.002 13.166C197.889 13.6807 194.637 18.5817 192.906 20.7823C191.236 22.9008 189.027 25.0119 187.468 26.1084L187.938 25.1983H187.931ZM137.81 26.556C137.183 27.4064 136.124 28.6074 135.229 29.316L135.087 29.1743L133.715 29.592L133.729 29.7039C133.633 29.5622 133.58 29.3608 133.58 29.1221C133.558 28.1896 134.364 26.4963 135.982 24.6463C137.474 22.953 139.1 21.9982 139.951 21.9982C140.801 21.9982 140.622 22.3339 140.622 22.6919C140.622 23.05 140.51 23.2738 140.354 23.4528C139.399 24.5419 138.683 25.4147 137.817 26.5709L137.81 26.556ZM179.964 26.556C179.315 27.4288 178.204 28.6894 177.294 29.3832L177.152 29.2116L175.861 29.6741C175.772 29.5324 175.727 29.3384 175.727 29.1146C175.705 28.1822 176.51 26.4889 178.129 24.6389C179.621 22.9455 181.247 21.9907 182.098 21.9907C182.948 21.9907 182.769 22.3264 182.769 22.6845C182.769 23.0425 182.657 23.2663 182.5 23.4453C181.545 24.5344 180.829 25.4072 179.964 26.5634V26.556Z" fill="#CF181F"/>
<path d="M182.605 40.1548L181.821 40.7441H181.553L179.203 45.0334L178.129 40.7441H177.659L177.174 40.1548V40.7441L178.562 46.1225L178.397 46.3835C178.032 47.0102 177.644 47.3906 177.099 47.4577L177.085 47.4055L177.002 47.4726C176.935 47.4726 176.861 47.4726 176.794 47.4726L176.756 47.6666L176.637 47.7636V48.3529C177.711 48.4275 178.644 47.8307 179.375 46.5178L182.597 40.7516V40.1622L182.605 40.1548Z" fill="#CF181F"/>
<path d="M197.852 41.0128C197.509 40.7517 197.061 40.6025 196.524 40.6025C195.495 40.6025 194.622 41.2142 194.458 42.1019C194.1 44.1309 197.285 43.5491 197.076 44.7053C196.987 45.1753 196.524 45.4214 195.89 45.4214C195.256 45.4214 194.741 45.0634 194.629 44.5636L194.309 44.7277L193.786 44.4069V44.9962C194.033 45.7646 194.696 46.3091 195.815 46.3091C196.934 46.3091 197.837 45.7795 198.009 44.8098C198.367 42.7434 195.181 43.3775 195.405 42.1914C195.502 41.6842 196.032 41.4753 196.479 41.4753C196.927 41.4753 197.427 41.6842 197.576 42.1616L198.411 41.7289V41.1396L197.859 40.8935V41.0054L197.852 41.0128Z" fill="#CF181F"/>
<path d="M171.199 37.6558L170.445 38.1257L170.594 38.2451H170.259L169.438 42.8775L168.983 45.4958L168.864 45.5853V46.1746H169.811L171.199 38.2451V37.6558Z" fill="#CF181F"/>
<path d="M108.658 38.5732H108.531L107.285 38.9835L106.405 38.6776V39.2669L106.502 40.1695L108.195 39.6921L107.173 45.5255L107.054 45.5852V46.1745H108.068L109.404 38.5732V37.9839L108.598 38.3792L108.658 38.5732Z" fill="#CF181F"/>
<path d="M103.033 40.6622C102.489 40.7293 101.981 40.9755 101.571 41.535L101.713 40.7443V40.1549L101.086 40.6025L101.288 40.7443H100.765L99.9224 45.5184L99.8105 45.5855V46.1748H100.758L101.265 43.288C101.496 42.0049 102.451 41.617 103.249 41.6394L103.421 40.6547V40.0654L102.869 40.5055L103.026 40.6697L103.033 40.6622Z" fill="#CF181F"/>
<path d="M94.462 40.1548L93.7235 40.7441H93.4102L91.1276 45.1005L90.3742 40.7441H89.7625L89.8147 40.5128L89.4119 40.1548V40.7441L90.4487 46.1747H91.508L94.462 40.7441V40.1548Z" fill="#CF181F"/>
<path d="M73.7543 45.3539C73.1949 45.3539 72.9114 45.2271 73.0308 44.6005L73.5529 41.6539H75.0001L75.1642 40.7439V40.1546L74.6644 40.7439H73.7021L73.9707 39.2221V38.6328L73.5082 39.3489L72.9711 39.4981L72.7548 40.7364H72.0685V40.5798C72.0759 40.5798 71.8969 40.7364 71.8969 40.7364H71.6955L71.6582 40.9453L71.5239 41.0572V41.6465H72.5981L72.0909 44.593C71.8521 45.9507 72.6578 46.3833 74.2094 46.167L74.3586 45.3166V44.7273L73.7245 45.3017L73.7618 45.339L73.7543 45.3539Z" fill="#CF181F"/>
<path d="M70.8149 40.7441H70.345L69.502 45.5332L69.3901 45.5854V46.1747H70.3375L71.2923 40.7441V40.1548L70.8075 40.6844L70.8149 40.7441Z" fill="#CF181F"/>
<path d="M69.8452 40.1548L69.241 40.7441H68.8083L66.8986 44.8842L66.3317 40.7665L66.3466 40.7441H65.3993L63.4225 44.8692L62.9227 40.7441H62.5497L62.5572 40.6546L61.9902 40.1548V40.7441L62.7287 46.1747H63.7134L65.6678 42.1465L66.2273 46.1747H67.1896L69.8452 40.7441V40.1548Z" fill="#CF181F"/>
<path d="M148.873 19.887C149.208 19.887 149.805 19.3275 150.185 18.6413C150.588 17.9475 150.633 17.3955 150.297 17.3955C149.962 17.3955 149.365 17.955 148.984 18.6413C148.582 19.335 148.537 19.887 148.873 19.887Z" fill="white"/>
<path d="M201.761 16.0528C201.604 15.9857 201.201 16.0528 201.089 16.1423C200.664 16.4557 199.195 18.2385 197.613 20.26H195.965C195.584 20.26 195.293 20.5062 195.316 20.6852C195.316 20.7748 195.405 20.8419 195.607 20.8419H197.166C196.763 21.3566 196.382 21.8862 196.01 22.3786C195.092 23.5945 194.368 24.5419 193.809 25.3848C193.264 25.9219 192.324 26.7797 191.25 27.6376C189.893 28.7043 188.886 29.3085 187.908 29.3085C186.931 29.3085 187.438 29.2638 187.192 29.1966C186.387 28.9505 186.327 27.7719 186.327 27.6823L186.775 26.8394C188.311 25.9293 190.78 23.8332 193.369 20.5584C195.152 18.328 198.068 14.2774 198.068 12.4051C198.068 10.5327 197.889 11.6442 197.509 11.495C195.413 10.6894 190.049 19.5588 187.237 24.2136C187.133 24.3927 187.021 24.5717 186.916 24.7507C186.909 24.7507 186.894 24.7507 186.886 24.7507C186.797 24.7507 186.707 24.7731 186.64 24.8402C186.237 25.3773 184.634 26.7797 183.925 27.3541C183.104 28.0255 181.545 29.1817 180.784 29.1817C180.024 29.1817 180.404 29.0698 180.404 28.7341C180.404 27.8465 181.008 26.7723 182.142 25.0118C183.186 23.3856 184.656 21.4461 184.656 21.2671C184.656 21.0881 184.566 21.1776 184.432 21.1776C183.94 21.1776 183.962 21.2223 183.276 21.9161V21.7594C183.276 21.3342 183.007 20.9165 182.187 20.9165C180.628 20.9165 177.756 22.4084 175.772 24.9223C175.734 24.9745 175.697 25.0193 175.66 25.0715C175.003 25.7727 174.101 26.5858 173.034 27.4213C171.385 28.6894 169.647 29.495 169.028 29.3831C168.961 29.3831 168.849 29.316 168.827 29.2489C168.76 29.0251 168.849 28.5327 169.274 28.0479C170.61 26.4217 172.84 24.6612 172.974 23.3707C173.064 22.3487 172.019 22.1249 171.527 21.8564C171.169 21.655 171.035 21.4312 171.035 21.4312C171.035 21.4312 171.37 21.0955 171.438 20.7151C171.482 20.3346 171.393 19.9766 170.901 19.9766C170.408 19.9766 170.274 20.2004 170.14 20.7151C170.028 21.0955 170.162 21.2969 170.229 21.4312C170.162 21.7669 169.341 22.7665 168.603 23.5945C167.738 24.5941 166.977 25.5116 166.44 25.9592C166.365 26.0263 166.313 26.0934 166.283 26.1531C165.806 26.5932 165.179 27.1378 164.336 27.7868C162.867 28.9206 161.554 29.4353 160.681 29.4353C159.808 29.4353 159.234 28.764 159.234 27.6525C159.234 26.541 159.569 25.713 160.345 24.5344C161.68 22.483 163.15 21.6401 163.956 21.6401C164.761 21.6401 164.515 21.7967 164.515 22.0429C164.515 22.8858 163.538 23.4677 163.538 23.5348C163.538 23.6467 163.985 24.0719 164.403 24.0943C164.515 24.0943 164.605 24.0495 164.649 23.9824C164.739 23.8481 165.343 22.9604 165.343 22.1995C165.343 21.4387 165.052 21.1104 164.164 21.1104C162.71 21.1104 159.801 22.9455 158.361 25.2431C157.719 25.907 156.862 26.6678 155.877 27.4436C154.228 28.7118 152.49 29.5174 151.871 29.4055C151.804 29.4055 151.692 29.3384 151.67 29.2712C151.603 29.0474 151.692 28.5551 152.117 28.0702C153.453 26.444 155.683 24.6836 155.817 23.3931C155.907 22.3711 154.862 22.1473 154.37 21.8788C154.012 21.6774 153.878 21.4536 153.878 21.4536C153.878 21.4536 154.213 21.1179 154.281 20.7375C154.325 20.357 154.236 19.999 153.743 19.999C153.251 19.999 153.117 20.2227 152.983 20.7375C152.871 21.1179 153.005 21.3193 153.072 21.4536C153.005 21.7893 152.184 22.7888 151.446 23.6169C150.581 24.6164 149.82 25.534 149.283 25.9816C149.178 26.0711 149.126 26.1606 149.111 26.2352C148.611 26.6828 148.104 27.1154 147.776 27.384C147.082 27.9434 145.881 28.8535 145.06 29.122C144.546 29.3011 144.173 29.2563 144.277 28.5402C144.389 27.6749 144.949 26.6678 145.993 25.0416C147.015 23.4378 148.179 21.834 148.484 21.3641C148.663 21.1179 147.925 21.2074 147.768 21.3193C147.455 21.5655 145.627 23.5273 144.695 24.7283C144.68 24.7433 144.673 24.7582 144.658 24.7806C144.591 24.788 144.531 24.8179 144.479 24.8626C144.076 25.3997 142.472 26.8021 141.763 27.3765C140.943 28.0479 139.384 29.2041 138.623 29.2041C137.862 29.2041 138.242 29.0922 138.242 28.7565C138.242 27.8688 138.847 26.7946 139.98 25.0342C141.025 23.408 142.494 21.4685 142.494 21.2895C142.494 21.1104 142.405 21.2 142.271 21.2C141.778 21.2 141.801 21.2447 141.114 21.9385V21.7818C141.114 21.3566 140.846 20.9389 140.025 20.9389C138.466 20.9389 135.594 22.4308 133.61 24.9447C132.588 26.2352 132.163 27.3914 132.163 28.2866C132.163 29.1817 132.722 29.9799 133.543 29.9799C134.363 29.9799 135.706 29.0698 136.639 27.9956C136.571 28.2194 136.527 28.4432 136.527 28.6446C136.527 29.3384 136.974 30.0023 137.929 30.0023C139.13 29.9799 141.047 28.5327 141.83 27.9509C142.196 27.6823 142.688 27.2721 143.181 26.8469C142.905 27.3094 142.681 27.7569 142.599 28.1299C142.442 28.846 142.599 29.8232 143.755 29.9799C144.956 30.1365 147.007 28.5775 147.828 27.9509C148.693 27.2795 150.319 25.8771 150.834 25.258C150.916 25.1685 150.954 25.0864 150.968 25.0193C151.267 24.691 151.55 24.3703 151.737 24.1465C152.319 23.4751 153.497 22.0056 153.497 22.0056C153.497 22.0056 153.699 22.2294 153.99 22.3636C154.527 22.6546 155.101 22.7888 155.213 23.2961C155.28 23.7437 154.743 24.2509 154.146 24.6761C153.259 25.3475 152.565 25.5862 151.364 26.5485C150.499 27.2422 149.626 28.2194 149.85 29.219C149.984 29.8009 150.633 30.0843 151.655 30.047C152.99 30.0023 154.571 29.1593 156.265 27.7942C156.794 27.3616 157.279 26.9588 157.704 26.5858C157.57 27.0035 157.496 27.4213 157.496 27.839C157.496 29.2414 158.518 30.1142 160.256 30.1142C161.994 30.1142 163.24 29.1817 164.418 28.3313C165.865 27.3019 167.402 25.907 167.902 25.2654C168.282 24.8552 168.663 24.4225 168.901 24.1465C169.483 23.4751 170.662 22.0056 170.662 22.0056C170.662 22.0056 170.863 22.2294 171.154 22.3636C171.691 22.6546 172.266 22.7888 172.378 23.2961C172.445 23.7437 171.908 24.2509 171.311 24.6761C170.423 25.3475 169.729 25.5862 168.528 26.5485C167.663 27.2422 166.79 28.2194 167.014 29.219C167.148 29.8009 167.797 30.0843 168.819 30.047C170.155 30.0023 171.736 29.1593 173.429 27.7942C173.869 27.4362 174.287 27.0856 174.653 26.7648C174.421 27.3243 174.317 27.839 174.317 28.2791C174.317 29.2563 174.876 29.9724 175.697 29.9724C176.518 29.9724 177.86 29.0624 178.793 27.9882C178.726 28.212 178.681 28.4358 178.681 28.6372C178.681 29.3309 179.128 29.9948 180.083 29.9948C181.284 29.9724 183.201 28.5253 183.985 27.9434C184.529 27.5406 185.365 26.8319 186.043 26.2053C183.358 30.6736 180.061 36.149 179.755 36.6264C179.419 37.1187 179.128 37.432 178.823 37.626C178.688 37.7155 178.621 37.8274 178.621 37.9169C178.621 38.0064 178.711 38.0736 178.912 38.0736C179.404 38.0512 181.187 37.3798 181.187 37.3798C182.567 34.7317 184.082 32.0089 185.529 29.2041C185.775 29.495 186.394 29.965 187.446 30.0097C188.915 30.0769 190.654 28.6521 191.414 28.1374C191.787 27.8763 192.369 27.4063 192.944 26.914C192.757 27.3168 192.615 27.7047 192.518 28.115C192.317 28.9579 192.518 29.8083 193.675 29.965C194.876 30.1216 196.927 28.5402 197.748 27.936C198.613 27.2646 200.239 25.8622 200.754 25.2431C200.933 25.064 200.933 24.9074 200.866 24.8179C200.754 24.706 200.508 24.706 200.396 24.8402C199.993 25.3549 198.389 26.7797 197.68 27.3541C196.987 27.9136 195.763 28.7789 194.965 29.0922C194.562 29.2712 194.055 29.2265 194.182 28.5104C194.383 27.2646 195.472 25.4594 197.3 22.6993C197.748 22.028 198.143 21.4088 198.523 20.8494H200.217C200.62 20.8494 200.91 20.5808 200.866 20.4018C200.843 20.3123 200.754 20.2675 200.552 20.2675H198.926C200.329 18.149 201.224 16.948 201.798 16.1946C201.843 16.1274 201.821 16.0827 201.753 16.0603L201.761 16.0528ZM187.931 24.609C189.356 21.9832 190.601 19.8199 191.922 17.9028C193.279 15.9409 196.039 12.047 197.002 12.5767C197.889 13.0914 194.637 17.9923 192.906 20.1929C191.235 22.3114 189.027 24.4225 187.468 25.5191L187.938 24.609H187.931ZM137.81 25.9666C136.877 27.2348 134.96 29.3085 134.087 29.3085C133.215 29.3085 133.573 28.9729 133.573 28.5327C133.55 27.6003 134.356 25.907 135.975 24.057C137.467 22.3636 139.093 21.4088 139.943 21.4088C140.794 21.4088 140.615 21.7445 140.615 22.1026C140.615 22.4606 140.503 22.6844 140.346 22.8634C139.391 23.9525 138.675 24.8253 137.81 25.9816V25.9666ZM179.964 25.9666C179.031 27.2348 177.114 29.3085 176.242 29.3085C175.369 29.3085 175.727 28.9729 175.727 28.5327C175.704 27.6003 176.51 25.907 178.129 24.057C179.621 22.3636 181.247 21.4088 182.097 21.4088C182.948 21.4088 182.769 21.7445 182.769 22.1026C182.769 22.4606 182.657 22.6844 182.5 22.8634C181.545 23.9525 180.829 24.8253 179.964 25.9816V25.9666Z" fill="white"/>
<path d="M99.8331 29.4201C100.475 29.8379 101.28 30.0766 102.243 30.0766C104.577 30.0766 107.382 28.7413 110.023 26.593H108.859C106.979 27.9655 105.114 28.7786 103.563 28.7786C102.011 28.7786 101.377 28.2266 100.87 27.2643C100.855 27.2345 100.84 27.2046 100.825 27.1823C100.795 27.1151 100.766 27.048 100.736 26.9734C100.713 26.9286 100.698 26.8764 100.676 26.8317C100.654 26.772 100.631 26.7048 100.609 26.6452C100.587 26.578 100.572 26.5184 100.557 26.4512C100.542 26.3915 100.527 26.3393 100.512 26.2796C100.497 26.1976 100.475 26.1081 100.46 26.026C100.452 25.9813 100.445 25.9365 100.437 25.8843C100.422 25.7649 100.407 25.653 100.4 25.5262C100.4 25.5039 100.4 25.4815 100.4 25.4591C100.393 25.3099 100.385 25.1533 100.385 24.9891C100.385 24.825 100.4 24.5639 100.415 24.3402C100.415 24.2954 100.422 24.2506 100.43 24.1984C100.519 23.2436 100.773 22.1694 101.191 21.0206C101.191 21.0206 101.273 20.036 103.063 17.1566C103.13 17.0521 103.182 16.9552 103.242 16.8656C103.272 16.8134 103.302 16.7612 103.339 16.709C103.429 16.5598 103.526 16.4181 103.623 16.2689C103.705 16.1421 103.787 16.0152 103.876 15.8884C103.951 15.7765 104.033 15.6572 104.115 15.5453C104.189 15.4334 104.272 15.329 104.346 15.2245C104.406 15.1425 104.465 15.0679 104.518 14.9858C104.607 14.8665 104.697 14.7471 104.779 14.6352C104.809 14.5905 104.846 14.5532 104.876 14.5159C107.979 10.5324 111.97 7.70526 114.864 7.70526C117.758 7.70526 118.042 9.1748 118.042 11.5022C118.042 13.8296 117.855 13.5536 117.482 14.7471C116.938 16.239 114.737 20.3493 114.737 20.3493C113.857 21.8561 112.559 24.3178 112.619 25.6157C112.679 26.9286 114.163 26.7645 116.058 25.5411C115.118 26.8093 114.566 27.6821 114.327 28.6667C114.17 29.3157 114.327 29.9721 115.215 30.0915C116.14 30.2109 117.714 28.9949 118.348 28.5324C118.475 28.4355 118.616 28.3236 118.773 28.1968C118.109 29.1143 117.721 29.6812 117.699 29.8677C117.684 30.0244 118.146 30.1586 118.333 30.1064C118.467 30.0915 120.899 26.6303 120.899 26.6303C121.548 25.7575 122.577 24.9369 123.435 24.3551C124.189 23.8553 124.994 23.445 125.337 23.7881C125.718 24.1835 124.48 25.5188 123.025 26.7347C122.272 27.3687 121.533 28.1371 121.57 29.0099C121.608 29.726 122.286 30.0691 122.891 30.0691C123.711 30.0318 124.793 29.2635 126.009 28.3385C126.986 27.6 127.821 26.7645 128.097 26.4363C128.373 26.1305 128.06 25.8694 127.739 26.2125C127.09 26.9286 126.3 27.6149 125.561 28.1968C124.741 28.8457 123.965 29.3754 123.42 29.45C123.077 29.5022 122.973 29.3306 122.995 29.1441C123.1 28.4429 124.077 27.1748 125.24 25.8545C125.718 25.3099 126.061 24.6385 126.061 24.1238C126.061 23.6091 125.852 23.3853 125.345 23.3033C124.33 23.1168 122.965 24.1089 122.48 24.4819C122.861 23.9523 123.249 23.3853 123.629 22.8408C124.472 22.4603 125.464 21.8263 126.68 20.5954C127.71 19.5511 129.03 17.5967 129.03 16.6046C129.03 15.6124 128.963 16.1943 128.791 16.0898C128.247 15.7616 127.314 16.4181 126.635 17.2685C124.39 20.1479 122.316 23.4002 120.108 26.3841C120.034 26.4811 119.967 26.5706 119.899 26.6675C119.4 27.1524 118.691 27.7716 118.31 28.0774C117.781 28.5026 116.833 29.174 116.222 29.4127C115.916 29.547 115.521 29.5171 115.625 28.9651C115.782 28.0028 116.617 26.6153 118.027 24.4968C118.37 23.9821 118.676 23.5047 118.967 23.072H120.272C120.578 23.072 120.802 22.8632 120.772 22.7289C120.757 22.6617 120.69 22.6244 120.533 22.6244H119.28C120.362 20.9983 121.048 20.0733 121.488 19.4914C121.526 19.4392 121.503 19.4094 121.451 19.387C121.332 19.3348 121.026 19.387 120.936 19.4541C120.608 19.6928 119.482 21.0654 118.266 22.6244H116.998C116.707 22.6244 116.483 22.8109 116.498 22.9527C116.498 23.0198 116.565 23.072 116.722 23.072H117.923C117.617 23.4674 117.326 23.8777 117.035 24.2506C116.938 24.3775 116.841 24.5043 116.751 24.6236C115.804 25.2055 114.767 25.7202 114.111 25.6829C113.066 25.6232 114.155 23.0869 115.013 21.4235C115.237 20.9908 115.446 20.6178 115.595 20.3567C115.923 19.745 116.349 18.9096 116.781 17.9846C116.826 17.8727 116.878 17.7608 116.945 17.6265C117.266 16.9253 117.587 16.1794 117.87 15.4409C118.348 14.0534 118.512 12.9643 118.572 12.4048C118.698 10.9576 118.601 9.13005 117.542 7.96635C117.52 7.94397 117.497 7.91413 117.468 7.89175C117.423 7.847 117.378 7.80224 117.333 7.75748C116.64 7.13087 115.685 6.78027 114.491 6.78027C111.686 6.78027 108.203 8.70485 105.137 11.6439C103.488 13.2179 101.967 15.1052 100.736 17.1416C100.736 17.1416 99.3333 19.5809 98.8633 21.0057C98.4829 22.065 98.2293 23.072 98.1025 24.0045C98.1025 24.0119 98.1025 24.0194 98.1025 24.0343C98.0502 24.467 98.0129 24.8922 98.0129 25.295C98.0129 25.6978 98.0204 25.6157 98.0353 25.7799C98.0353 25.7948 98.0353 25.8097 98.0353 25.8246C98.0428 25.9663 98.0577 26.1081 98.0801 26.2424C98.0801 26.2871 98.095 26.3319 98.1025 26.3841C98.1248 26.5184 98.1472 26.6452 98.1696 26.7794C98.1696 26.8093 98.1845 26.8466 98.192 26.8764C98.2889 27.2792 98.4232 27.6522 98.5948 27.9879C98.6172 28.0252 98.6395 28.07 98.6545 28.1072C98.7067 28.2042 98.7664 28.3012 98.826 28.3907C98.8484 28.428 98.8783 28.4579 98.9006 28.4951C99.117 28.801 99.3706 29.0621 99.6615 29.2784C99.6764 29.2933 99.6913 29.3008 99.7063 29.3157C99.751 29.3455 99.7883 29.3828 99.8331 29.4127C99.8331 29.4127 99.8331 29.4127 99.8405 29.4052L99.8331 29.4201ZM125.621 19.842C126.218 18.932 127.866 16.3808 128.396 16.7239C128.821 16.9775 127.642 19.0737 126.441 20.2672C125.74 20.9535 124.882 21.6547 124.181 22.0128C124.681 21.2743 125.158 20.5358 125.621 19.8346V19.842Z" fill="white"/>
<path d="M66.4289 29.637C71.8819 29.637 77.2976 26.0265 77.8272 20.1036C78.1405 16.4559 75.3655 13.6585 71.7849 13.6585C68.2043 13.6585 70.5988 13.7854 70.0692 13.9718C71.2553 12.3829 72.7174 10.5777 73.9333 8.98883C75.4625 9.11565 76.1413 9.2723 77.7974 9.235C80.4753 9.13802 85.0555 9.07835 86.9204 6.46003C87.0174 6.30338 87.0174 6.17657 86.9503 6.08705C86.8533 6.02737 86.7041 5.99008 86.5475 6.08705C84.9287 7.0195 82.564 7.3328 80.8185 7.3328C79.0729 7.3328 76.5814 6.90015 76.0518 6.14673C75.8952 5.9304 75.8653 5.77375 75.649 5.71407C75.4327 5.6171 75.1194 5.68423 74.9925 5.84088C74.1496 6.84047 70.1364 12.3829 67.6448 15.1878L67.7344 15.4339L67.891 15.5906C68.4505 15.5906 69.4202 14.5611 71.0091 14.5611C73.8438 14.5611 75.6788 17.0228 75.4327 19.8575C74.9627 24.3705 71.6954 29.0477 66.5259 28.9209C63.9076 28.8239 62.4157 27.1156 62.4455 24.7435C62.4754 24.4004 62.535 24.184 62.632 24.0572C62.6917 23.9304 62.7887 23.8409 62.9155 23.811C63.102 23.7514 63.5719 24.1243 64.1015 23.8409C64.6909 23.5574 65.034 22.9681 64.8475 22.2818C64.6909 21.782 64.1314 21.5955 63.6987 21.5955C62.1695 21.5955 61.3639 23.1844 61.2669 24.4004C60.9834 27.5483 63.4451 29.6295 66.4364 29.6295L66.4289 29.637Z" fill="white"/>
<path d="M96.2226 21.3718C96.2972 21.2674 96.3792 21.1555 96.4688 21.0212C97.6847 19.2608 98.6917 17.1572 98.6917 17.1572C99.654 15.0461 100.124 13.0842 100.124 11.4655C100.124 8.59355 98.6619 6.72119 95.9018 6.72119C91.2993 6.72119 84.8542 11.9056 81.4824 18.2985C80.1322 20.8795 79.4907 23.2218 79.4907 25.1538C79.4907 28.0258 80.9528 29.8981 83.7129 29.8981C86.4729 29.8981 92.6718 26.2877 96.2151 21.3718H96.2226ZM81.8778 24.8256C81.8778 23.0055 82.5492 20.6632 83.9292 18.112C87.0324 12.3084 92.5749 7.6238 96.2972 7.6238C100.02 7.6238 99.4601 9.08588 99.4601 11.4058C99.4601 13.7257 98.9453 14.979 97.901 17.1572C96.8343 19.6785 95.5885 21.0212 95.5885 21.0212C92.4331 25.4075 88.114 28.6076 85.0407 28.6076C81.9673 28.6076 81.8778 27.1456 81.8778 24.8256Z" fill="white"/>
<path d="M68.8085 40.1548L66.8989 44.2949L66.332 40.1772L66.3469 40.1548H65.3995L63.4227 44.2799L62.9229 40.1548H61.9905L62.729 45.5854H63.7136L65.6681 41.5572L66.2275 45.5854H67.1898L69.8454 40.1548H68.8085Z" fill="white"/>
<path d="M69.3904 45.5854H70.3377L71.2926 40.1548H70.3452L69.3904 45.5854Z" fill="white"/>
<path d="M71.2182 37.8945C70.8377 37.8945 70.5319 38.1855 70.4797 38.5361C70.4274 38.8717 70.6438 39.1627 71.0018 39.1627C71.3599 39.1627 71.6881 38.8792 71.7478 38.5361C71.8 38.1855 71.5613 37.8945 71.2182 37.8945Z" fill="white"/>
<path d="M73.0308 44.0112L73.5529 41.0646H75.0001L75.1642 40.1546H73.7096L73.9781 38.6328L72.9785 38.9163L72.7622 40.1546H71.6955L71.5239 41.0646H72.5981L72.0909 44.0112C71.8521 45.3688 72.6578 45.8015 74.2094 45.5851L74.3586 44.7348C73.4112 44.787 72.8816 44.8317 73.0308 44.0037V44.0112Z" fill="white"/>
<path d="M78.3943 40.0129C77.7006 40.0129 77.0367 40.2665 76.5369 40.8708L77.0441 37.9839H76.0967L74.7615 45.5852H75.7088L76.2161 42.6984C76.4324 41.4302 77.2455 40.9155 78.1034 40.9155C78.9612 40.9155 79.3491 41.4153 79.1999 42.303L78.6255 45.5852H79.5729L80.1622 42.2508C80.3935 40.8857 79.6624 40.0129 78.3943 40.0129Z" fill="white"/>
<path d="M86.5696 40.0132C85.0628 40.0132 83.541 41.0202 83.2277 42.7732C82.9144 44.5337 84.093 45.7272 85.6595 45.7272C87.226 45.7272 88.621 44.7276 88.9268 42.9448C89.2327 41.2216 88.0764 40.0132 86.5696 40.0132ZM87.9944 42.8478C87.7781 44.1309 86.7263 44.8022 85.7341 44.8022C84.7644 44.8097 83.9662 44.1383 84.1676 42.8702C84.4063 41.6095 85.4507 40.9456 86.413 40.9382C87.3902 40.9382 88.2033 41.6095 87.9869 42.8478H87.9944Z" fill="white"/>
<path d="M93.4102 40.1548L91.1276 44.5112L90.3742 40.1548H89.4119L90.4487 45.5854H91.508L94.462 40.1548H93.4102Z" fill="white"/>
<path d="M97.1923 40.0132C95.6034 40.0132 94.2383 41.1769 93.9697 42.7583C93.6788 44.4069 94.6784 45.7198 96.4015 45.7198C98.1247 45.7198 98.3783 45.3095 98.9453 44.5337L98.2366 44.0264C97.8487 44.5262 97.237 44.8321 96.506 44.8321C95.7749 44.8321 94.8574 44.2875 94.8574 43.3029H99.4003C99.4451 43.176 99.4973 42.9523 99.5122 42.8777C99.818 41.3261 98.8483 40.0132 97.1997 40.0132H97.1923ZM98.6096 42.4674H94.9917C95.305 41.4976 96.1181 40.9009 97.1326 40.9009C98.1471 40.9009 98.6543 41.3932 98.6096 42.4674Z" fill="white"/>
<path d="M101.571 40.9458L101.713 40.155H100.766L99.8108 45.5856H100.758L101.265 42.6988C101.497 41.4157 102.451 41.0278 103.25 41.0502L103.421 40.0655C102.735 40.0431 102.071 40.2595 101.564 40.9532L101.571 40.9458Z" fill="white"/>
<path d="M106.405 38.6776L106.502 39.5802L108.195 39.1028L107.054 45.5852H108.068L109.404 37.9839H108.531L106.405 38.6776Z" fill="white"/>
<path d="M113.417 37.8423C111.485 37.8423 110.232 39.3417 109.821 41.684C109.411 44.0337 110.254 45.7271 112.082 45.7271C113.909 45.7271 115.267 44.2202 115.677 41.8705C116.087 39.5207 115.252 37.8423 113.417 37.8423ZM114.67 41.7809C114.334 43.6682 113.454 44.735 112.223 44.735C110.993 44.735 110.485 43.6682 110.821 41.7809C111.149 39.8937 112.037 38.812 113.268 38.812C114.499 38.812 115.006 39.8862 114.67 41.7809Z" fill="white"/>
<path d="M120.034 37.8423C118.102 37.8423 116.848 39.3417 116.438 41.684C116.028 44.0337 116.871 45.7271 118.698 45.7271C120.526 45.7271 121.884 44.2202 122.294 41.8705C122.704 39.5207 121.869 37.8423 120.034 37.8423ZM121.294 41.7809C120.959 43.6682 120.078 44.735 118.848 44.735C117.617 44.735 117.109 43.6682 117.445 41.7809C117.773 39.8937 118.661 38.812 119.892 38.812C121.123 38.812 121.63 39.8862 121.294 41.7809Z" fill="white"/>
<path d="M121.958 47.1075H122.771L123.95 44.4668H122.861L121.958 47.1075Z" fill="white"/>
<path d="M128.649 37.8423C126.717 37.8423 125.464 39.3417 125.054 41.684C124.644 44.0337 125.487 45.7271 127.314 45.7271C129.142 45.7271 130.499 44.2202 130.91 41.8705C131.32 39.5207 130.484 37.8423 128.649 37.8423ZM129.903 41.7809C129.567 43.6682 128.687 44.735 127.456 44.735C126.225 44.735 125.718 43.6682 126.053 41.7809C126.382 39.8937 127.269 38.812 128.5 38.812C129.731 38.812 130.238 39.8862 129.903 41.7809Z" fill="white"/>
<path d="M135.266 37.8423C133.334 37.8423 132.081 39.3417 131.671 41.684C131.261 44.0337 132.103 45.7271 133.931 45.7271C135.759 45.7271 137.116 44.2202 137.527 41.8705C137.937 39.5207 137.101 37.8423 135.266 37.8423ZM136.52 41.7809C136.184 43.6682 135.304 44.735 134.073 44.735C132.842 44.735 132.335 43.6682 132.67 41.7809C132.999 39.8937 133.886 38.812 135.117 38.812C136.348 38.812 136.855 39.8862 136.52 41.7809Z" fill="white"/>
<path d="M141.883 37.8423C139.95 37.8423 138.697 39.3417 138.287 41.684C137.877 44.0337 138.72 45.7271 140.547 45.7271C142.375 45.7271 143.733 44.2202 144.143 41.8705C144.553 39.5207 143.718 37.8423 141.883 37.8423ZM143.143 41.7809C142.808 43.6682 141.927 44.735 140.696 44.735C139.466 44.735 138.958 43.6682 139.294 41.7809C139.622 39.8937 140.51 38.812 141.741 38.812C142.972 38.812 143.479 39.8862 143.143 41.7809Z" fill="white"/>
<path d="M150.7 40.0132C149.111 40.0132 147.746 41.1769 147.477 42.7583C147.186 44.4069 148.186 45.7198 149.909 45.7198C151.632 45.7198 151.886 45.3095 152.453 44.5337L151.744 44.0264C151.356 44.5262 150.745 44.8321 150.014 44.8321C149.282 44.8321 148.365 44.2875 148.365 43.3029H152.908C152.953 43.176 153.005 42.9523 153.02 42.8777C153.326 41.3261 152.356 40.0132 150.707 40.0132H150.7ZM152.125 42.4674H148.507C148.82 41.4976 149.633 40.9009 150.648 40.9009C151.662 40.9009 152.169 41.3932 152.125 42.4674Z" fill="white"/>
<path d="M160.144 40.0133C159.48 40.0133 158.786 40.3042 158.279 40.9607C158.048 40.349 157.533 40.0133 156.824 40.0133C156.116 40.0133 155.593 40.252 155.109 40.804L155.228 40.1551H154.281L153.326 45.5856H154.273L154.818 42.5197C155.026 41.371 155.765 40.9085 156.489 40.9085C157.212 40.9085 157.54 41.3784 157.399 42.2363L156.809 45.5782H157.757L158.286 42.5272C158.495 41.3635 159.167 40.9085 159.905 40.9085C160.644 40.9085 161.017 41.3784 160.875 42.2363L160.285 45.5782H161.233L161.83 42.199C162.061 40.8339 161.278 40.0059 160.144 40.0059V40.0133Z" fill="white"/>
<path d="M166.216 40.0133C165.328 40.0133 164.575 40.3639 164.045 40.9607L164.187 40.1551H163.24L161.904 47.7564H162.852L163.419 44.5488C163.792 45.3096 164.545 45.7199 165.44 45.7199C166.872 45.7199 168.223 44.6905 168.513 42.9748C168.782 41.3859 167.768 40.0059 166.223 40.0059L166.216 40.0133ZM167.566 42.9151C167.35 44.1609 166.328 44.8173 165.358 44.8173C164.388 44.8173 163.493 44.1236 163.717 42.8181C163.911 41.7066 164.881 40.9309 165.962 40.9309C167.044 40.9309 167.745 41.8111 167.559 42.9151H167.566Z" fill="white"/>
<path d="M170.259 37.6558L169.438 42.2807L168.864 45.5853H169.811L171.199 37.6558H170.259Z" fill="white"/>
<path d="M174.429 40.0132C172.922 40.0132 171.4 41.0202 171.087 42.7732C170.774 44.5337 171.952 45.7272 173.519 45.7272C175.085 45.7272 176.48 44.7276 176.786 42.9448C177.092 41.2216 175.936 40.0132 174.429 40.0132ZM175.846 42.8478C175.63 44.1309 174.578 44.8022 173.586 44.8022C172.616 44.8097 171.818 44.1383 172.02 42.8702C172.258 41.6095 173.303 40.9456 174.265 40.9382C175.242 40.9382 176.055 41.6095 175.839 42.8478H175.846Z" fill="white"/>
<path d="M181.546 40.1548L179.196 44.4441L178.122 40.1548H177.167L178.554 45.5332L178.39 45.7942C177.958 46.5327 177.503 46.9356 176.786 46.8833L176.637 47.7636C177.711 47.8382 178.644 47.2414 179.375 45.9285L182.597 40.1622H181.546V40.1548Z" fill="white"/>
<path d="M185.328 40.0132C183.739 40.0132 182.374 41.1769 182.105 42.7583C181.814 44.4069 182.814 45.7198 184.537 45.7198C186.26 45.7198 186.514 45.3095 187.081 44.5337L186.372 44.0264C185.984 44.5262 185.372 44.8321 184.641 44.8321C183.91 44.8321 182.993 44.2875 182.993 43.3029H187.536C187.58 43.176 187.633 42.9523 187.647 42.8777C187.953 41.3261 186.984 40.0132 185.335 40.0132H185.328ZM186.745 42.4674H183.127C183.44 41.4976 184.253 40.9009 185.268 40.9009C186.282 40.9009 186.79 41.3932 186.745 42.4674Z" fill="white"/>
<path d="M191.303 40.0132C189.714 40.0132 188.349 41.1769 188.08 42.7583C187.789 44.4069 188.789 45.7198 190.512 45.7198C192.235 45.7198 192.489 45.3095 193.056 44.5337L192.347 44.0264C191.959 44.5262 191.347 44.8321 190.616 44.8321C189.885 44.8321 188.968 44.2875 188.968 43.3029H193.511C193.555 43.176 193.608 42.9523 193.623 42.8777C193.928 41.3261 192.959 40.0132 191.31 40.0132H191.303ZM192.727 42.4674H189.109C189.423 41.4976 190.236 40.9009 191.25 40.9009C192.265 40.9009 192.772 41.3932 192.727 42.4674Z" fill="white"/>
<path d="M196.479 40.8938C196.972 40.8938 197.427 41.1026 197.576 41.5801L198.411 41.1474C198.098 40.4313 197.434 40.021 196.524 40.021C195.614 40.021 194.622 40.6327 194.458 41.5204C194.1 43.5494 197.285 42.9675 197.076 44.1238C196.987 44.5937 196.524 44.8399 195.89 44.8399C195.256 44.8399 194.741 44.4818 194.629 43.982L193.779 44.4147C194.025 45.183 194.689 45.7276 195.808 45.7276C196.927 45.7276 197.83 45.198 198.001 44.2282C198.359 42.1619 195.174 42.796 195.398 41.6099C195.495 41.1026 196.024 40.8938 196.472 40.8938H196.479Z" fill="white"/>
<defs>
<clipPath id="clip0_508_268">
<rect width="51.8272" height="52" fill="white" transform="translate(0 1)"/>
</clipPath>
</defs>
</svg>
